<?xml version="1.0" encoding="utf-8"?>
<!-- Generator: Adobe Illustrator 23.1.1, SVG Export Plug-In . SVG Version: 6.00 Build 0)  -->
<svg version="1.1" id="Слой_1" xmlns="http://www.w3.org/2000/svg" xmlns:xlink="http://www.w3.org/1999/xlink" x="0px" y="0px"
	 viewBox="0 0 26 26" style="enable-background:new 0 0 26 26;" xml:space="preserve">
<style type="text/css">
	.st0{fill:#3356B7;}
</style>
<g>
	<path class="st0" d="M1.8,7.8h6.7C8.8,9,9.9,10,11.3,10s2.6-1,2.9-2.3h10C24.7,7.8,25,7.4,25,7s-0.3-0.8-0.8-0.8h-10
		C13.9,5,12.7,4,11.3,4S8.8,5,8.4,6.2H1.8C1.3,6.2,1,6.6,1,7S1.3,7.8,1.8,7.8z M11.3,5.5c0.8,0,1.5,0.7,1.5,1.5s-0.7,1.5-1.5,1.5
		S9.8,7.8,9.8,7S10.5,5.5,11.3,5.5z"/>
	<path class="st0" d="M24.2,12.2h-1.6C22.3,11,21.1,10,19.7,10s-2.6,1-2.9,2.3H1.8C1.3,12.2,1,12.6,1,13s0.3,0.8,0.8,0.8h15.1
		c0.3,1.3,1.5,2.3,2.9,2.3s2.6-1,2.9-2.3h1.6c0.4,0,0.8-0.3,0.8-0.8S24.7,12.2,24.2,12.2z M19.7,14.5c-0.8,0-1.5-0.7-1.5-1.5
		s0.7-1.5,1.5-1.5s1.5,0.7,1.5,1.5S20.6,14.5,19.7,14.5z"/>
	<path class="st0" d="M24.2,18.2H9.7C9.4,17,8.2,16,6.8,16c-1.4,0-2.6,1-2.9,2.3H1.8C1.3,18.2,1,18.6,1,19s0.3,0.8,0.8,0.8h2.2
		C4.2,21,5.4,22,6.8,22c1.4,0,2.6-1,2.9-2.3h14.5c0.4,0,0.8-0.3,0.8-0.8S24.7,18.2,24.2,18.2z M6.8,20.5c-0.8,0-1.5-0.7-1.5-1.5
		s0.7-1.5,1.5-1.5c0.8,0,1.5,0.7,1.5,1.5S7.6,20.5,6.8,20.5z"/>
</g>
</svg>
